<?xml version="1.0" encoding="UTF-8"?>
<svg id="Layer_1" data-name="Layer 1" xmlns="http://www.w3.org/2000/svg" xmlns:xlink="http://www.w3.org/1999/xlink" viewBox="0 0 364.77 80.74">
  <defs>
    <style>
      .cls-1 {
        fill: #fdfeff;
      }

      .cls-2 {
        fill: #fdfefe;
      }

      .cls-3 {
        fill: url(#linear-gradient-2);
      }

      .cls-4 {
        fill: #000101;
      }

      .cls-5 {
        fill: #f6f8fc;
      }

      .cls-6 {
        fill: #4b73b9;
      }

      .cls-7 {
        fill: #8d8c8c;
      }

      .cls-8 {
        fill: #feffff;
      }

      .cls-9 {
        fill: url(#linear-gradient);
      }

      .cls-10 {
        fill: #fbfcfc;
      }
    </style>
    <linearGradient id="linear-gradient" x1="46.76" y1="-38.33" x2="90.95" y2="-17.15" gradientTransform="translate(17.51 60.91) scale(.66)" gradientUnits="userSpaceOnUse">
      <stop offset="0" stop-color="#4368b1"/>
      <stop offset="1" stop-color="#507abd"/>
    </linearGradient>
    <linearGradient id="linear-gradient-2" x1="-34.74" y1="-64" x2="49.36" y2="-24.3" gradientTransform="translate(17.51 60.91) scale(.66)" gradientUnits="userSpaceOnUse">
      <stop offset="0" stop-color="#2c2d72"/>
      <stop offset="1" stop-color="#466cb4"/>
    </linearGradient>
  </defs>
  <g>
    <g>
      <path class="cls-9" d="M76.97.67c1.05-.38,2.33-.47,3.28.23,3.92,4.29-1.73,28.05-3.75,33.59,5.94,9.82,3.55,21.66-4.35,29.96-7.18,7.55-16.53,12.03-26.46,15.39-3.49,1.18-6.89,1.46-9.75-.73.81-.34,1.27-1.07,1.36-1.71.15-1.2-.82-1.48-2.19-2.04,3.61-.39,5.3-3.54,5.95-6.74-.43-1.26-.24-2.55.58-3.87-1.76-.12-2.85-.73-3.29-1.85-.71-.99-.2-2.32.39-3.58l12.78-27.31c4.1-8.75,7.97-15.89,10.75-23.74,4.64-3.55,9.25-6.89,14.7-7.59Z"/>
      <path class="cls-6" d="M80.25.9l-3.28-.23c.68-.87,2.91-.99,3.28.23Z"/>
      <path class="cls-5" d="M38.35,62.88l6.01.46c.59.04.9.49,1.14.82.88,1.21-1.36.22-2.18.7-1.38.81-.58,2.84-2.27,3.75-3.14-.11.11-4.88-4.7-3.85-.55-.73,1.02-1.95,1.99-1.88Z"/>
      <path class="cls-1" d="M59.98,50.56c-2.35,1.21-7.4.64-8.23-1.67-.99-2.73,2.14-5.73,4.05-6.83,2.11-1.21,7.7-1.49,8.56.67,1.05,2.66-1.77,6.49-4.38,7.83Z"/>
    </g>
    <g>
      <path class="cls-3" d="M62.27,8.26l.45,2.6c-8.02,17.13-15.82,34.14-23.4,51.03l-.97.99-.03.86c1.81.47,2.73,2.09,2.74,4.86,2.51,1.6-.93,5.86-2.92,7.11,1.06,1.97.2,4.55-2.2,3.39-8.6-2.04-16.16-6.43-22.71-11.85C3.53,59.23-.99,45.84,5.99,34.53,3.96,29.52-2.64,4.81,1.16,2,6.21-1.74,24.45,11.24,29.34,14.86c7.73-2.74,15.82-3.02,23.78.16,2.85-3,6.3-4.58,9.15-6.76Z"/>
      <path class="cls-8" d="M20.59,50.03c-2.75-1.33-5.23-5.27-4.32-7.95,1.21-1.91,6.08-1.66,8.2-.63s5.41,4.05,4.36,7.01c-.79,2.22-5.89,2.71-8.24,1.57Z"/>
    </g>
  </g>
  <g>
    <path d="M174.02,66.23c-.21-6.2,2.91-22.33-3.38-24.75-2.19-.84-4.79-.67-6.69,1.26-5.46,5.54-3.21,15.92-3.04,23.41-3.74.3-7.11.21-10.79.06.74-17.23.68-34.09-.08-51.47,3.79-.48,7.19-.91,10.89-.74-.66,9.52-.76,18.33-.39,28.05,3.46-4.86,8.31-6.79,13.96-6.28,5.68.52,9.38,4.54,9.72,10.35l.57,20.01c-3.59.33-6.73.2-10.79.09Z"/>
    <path d="M131.03,63.13c3.74-.23,6.43-1.45,9.7-2.89.67,1.67.81,3.19,1.11,5.23-6.58,2.23-13.89,2.59-20.73.9-11.64-2.89-18.33-12.71-17.92-24.44.39-11.25,7.12-20.17,18.3-22.69,6.49-1.46,13.23-1.2,19.76.82.2,1.91-.14,3.49-.95,5.52-4.57-2.87-9.4-3.99-14.93-2.09-11.33,3.88-12.78,20.27-8.71,30.57,2.32,5.89,7.61,9.48,14.38,9.06Z"/>
    <path d="M257.22,36.78l10.92-.11c.04,6.09-2.77,21.85,2.77,24.56,2.39,1.17,5.07.92,6.95-.82,5.81-5.38,3.43-15.64,3.29-23.2,3.78-.61,7.11-.73,10.86-.94-.61,10.09-.71,19.82.03,29.91-3.84.24-7.13.18-10.73.03l-.33-4.84c-4.56,6.18-13.26,8.04-19.58,3.09-2.48-1.95-3.48-5.44-3.58-8.56l-.6-19.13Z"/>
    <path d="M364.73,66.17c-4.02.3-7.66.19-11.65.04.81-15.65.83-30.95,0-46.7l11.7-.1c-.92,15.6-.76,30.64-.04,46.76Z"/>
    <path class="cls-4" d="M242.68,37.95c-.32.94-.48,2.3.85,1.99,1.71-3.43,5.75-5.41,9.36-3.46-.24,2.39-.52,4.31-1.29,6.19-2.34-.89-4.61-.96-6.44.57-5.35,4.48-2.18,15.57-2.57,22.95-3.67.2-7.14.23-10.86-.02.78-9.83.77-19.31.05-29.05l10.64-.84c.17.73.25,1.21.27,1.68Z"/>
    <path class="cls-7" d="M243.53,39.94c-.28.56-.74.94-1.07,2.04-.52-1.22-.72-3.06.23-4.03.02.75,0,1.72.85,1.99Z"/>
    <g>
      <path d="M312.49,48.32l-6.49,17.76c-2.48.43-4.78.38-7.61.02,3.39-7.04,6.49-13.94,9.6-21.3l10.6-25.06c3.01-.45,5.54-.59,8.49-.7l14.36,35.68,5.33,11.46-13.17.06c-1.85-6.07-3.09-12.03-5.85-17.76-5.15-.44-9.78-.28-15.28-.17Z"/>
      <path class="cls-2" d="M326.21,43.75c-4.03.6-7.66.4-12.12.14l6-15.41,6.12,15.27Z"/>
    </g>
    <g>
      <path d="M196.4,66.82c-3.29-.8-4.71-3.41-4.87-5.98-.2-3.3,1.61-5.4,4.86-6.5l13.76-4.64c.4-2.56.3-5.02-.42-7.41-1.64-5.49-10.39-1.28-13.67.58-.82.3-1.62-2.61-.7-3.23,5.14-3.46,11.4-4.66,17.43-3.54,12.64,2.34,4.59,22.77,8.54,26.22.54.47,1.47.32,2.4.51s1.04,1.45,1.05,2.1c0,1.75-10.02,4.42-13.83-.71-4.53,2.77-9.4,3.84-14.56,2.59Z"/>
      <path class="cls-10" d="M210.24,60.92c-2.48,1.51-5.61,2.71-8.35,1.38-2.02-.98-1.52-4.27.27-5.31,2.62-1.52,5.17-2.41,8.05-3.22.33,2.65.2,4.38.03,7.15Z"/>
    </g>
  </g>
</svg>